{"glyphs":{"0":{"ha":994,"x_min":0,"x_max":909,"o":"m 776 949 q 909 559 909 783 q 776 165 909 332 q 632 45 708 83 q 454 0 548 0 l 454 0 l 454 0 q 277 45 361 0 q 132 165 198 84 q 0 559 0 331 q 132 949 0 784 q 277 1072 199 1034 q 454 1115 358 1115 l 454 1115 l 454 1115 q 632 1072 551 1115 q 776 949 707 1034 m 159 191 q 220 114 159 191 q 454 38 281 38 q 750 191 628 38 q 872 559 872 343 q 750 926 872 774 q 454 1078 628 1078 q 159 926 281 1078 q 37 559 37 774 q 159 191 37 343 z "},"1":{"ha":852,"x_min":0,"x_max":464,"o":"m 426 1115 l 464 1115 l 464 0 l 426 0 l 426 1061 l 53 684 l 0 684 l 426 1115 z "},"2":{"ha":994,"x_min":0,"x_max":796,"o":"m 796 38 l 796 0 l 540 0 l 503 0 l 0 0 l 0 38 l 704 776 q 742 890 742 821 q 687 1023 742 968 q 553 1078 632 1078 l 157 1078 l 157 1115 l 532 1115 l 553 1115 l 557 1115 l 560 1115 q 714 1046 651 1112 q 777 890 777 981 q 730 750 777 802 l 50 38 l 503 38 l 503 38 l 540 38 l 796 38 z "},"3":{"ha":994,"x_min":0,"x_max":811,"o":"m 713 600 q 811 350 811 495 q 713 103 811 208 q 477 0 614 0 l 38 0 l 0 0 l 0 38 l 476 38 q 687 130 600 38 q 774 350 774 221 q 693 568 774 476 q 495 667 612 661 q 144 667 495 667 l 142 704 l 476 704 q 647 742 586 704 q 713 890 713 787 q 652 1029 713 979 q 476 1078 590 1078 l 38 1078 l 0 1078 l 0 1115 l 34 1115 l 477 1115 q 682 1053 612 1115 q 751 890 751 993 q 669 711 751 765 q 597 681 639 692 q 713 600 663 654 z "},"4":{"ha":994,"x_min":0,"x_max":911,"o":"m 911 609 l 911 572 l 589 572 l 589 0 l 552 0 l 552 572 l 0 572 l 0 609 l 552 1115 l 589 1115 l 589 609 l 911 609 m 53 609 l 552 609 l 552 1061 l 53 609 z "},"5":{"ha":994,"x_min":0,"x_max":823,"o":"m 473 701 q 721 599 618 701 q 823 351 823 496 q 735 104 823 201 q 502 0 643 3 l 500 0 l 499 0 l 39 0 l 0 0 l 0 38 l 499 38 l 499 38 q 707 126 625 38 q 788 351 788 214 q 696 573 788 481 q 473 665 604 665 l 473 665 l 220 665 l 225 665 l 217 665 l 0 665 l 0 674 l 0 1086 l 0 1115 l 34 1115 l 623 1115 l 623 1078 l 38 1078 l 38 701 l 473 701 z "},"6":{"ha":994,"x_min":0,"x_max":833,"o":"m 416 1078 q 149 966 259 1078 q 38 697 38 854 l 37 697 l 37 589 q 122 712 66 656 q 416 834 244 834 q 712 712 590 834 q 833 418 833 591 q 712 123 833 244 q 416 1 590 1 q 122 123 244 1 q 79 176 100 145 q 46 228 57 208 l 37 248 q 18 303 24 278 q 7 347 11 328 q 1 407 3 366 q 0 474 0 448 q 1 578 0 500 q 1 712 1 655 q 35 857 1 777 q 122 991 68 937 q 416 1114 244 1114 q 658 1036 549 1114 q 810 834 762 960 l 770 834 q 633 1013 730 947 q 416 1078 537 1078 m 686 687 q 630 743 686 687 q 416 799 574 799 q 149 687 259 799 q 38 418 38 575 q 149 149 38 260 q 416 38 259 38 q 686 149 574 38 q 798 418 798 260 q 686 687 798 575 z "},"7":{"ha":994,"x_min":0,"x_max":914,"o":"m 914 1115 l 479 557 l 457 529 l 45 0 l 0 0 l 435 557 l 457 586 l 869 1115 l 914 1115 m 0 1078 l 0 1115 l 879 1115 l 879 1078 l 0 1078 z "},"8":{"ha":994,"x_min":0,"x_max":806,"o":"m 708 600 q 806 350 806 495 q 707 103 806 209 q 472 0 608 0 l 465 0 l 403 0 l 340 0 l 334 0 q 98 103 197 0 q 0 350 0 208 q 98 600 0 495 q 214 681 148 654 q 144 711 175 690 q 61 890 61 765 q 129 1053 61 994 q 334 1115 199 1115 l 403 1115 l 472 1115 q 677 1053 606 1115 q 745 890 745 994 q 661 711 745 766 q 591 681 628 690 q 708 600 658 654 m 403 704 l 426 704 l 471 704 q 642 742 581 704 q 708 890 708 787 q 646 1029 708 979 q 471 1078 585 1078 l 408 1078 l 397 1078 l 335 1078 q 159 1029 221 1078 q 98 890 98 979 q 164 742 98 787 q 335 704 225 704 l 380 704 l 403 704 m 471 38 q 681 130 594 38 q 768 350 768 221 q 686 568 768 476 q 487 667 604 661 l 423 667 l 403 667 l 382 667 l 317 667 q 119 568 201 661 q 38 350 38 476 q 125 130 38 221 q 335 38 212 38 l 339 38 l 465 38 l 471 38 z "},"9":{"ha":994,"x_min":0,"x_max":834,"o":"m 416 3 q 175 79 282 3 q 24 281 73 153 l 62 281 q 199 104 103 170 q 416 39 296 39 q 686 151 574 39 q 798 419 798 262 l 798 528 q 711 403 768 460 q 416 282 590 282 q 122 403 243 282 q 0 697 0 525 q 122 993 0 871 q 416 1114 243 1114 q 711 993 590 1114 q 798 868 760 944 q 828 764 822 808 q 834 621 834 719 q 833 528 834 600 q 833 403 833 456 q 799 259 833 339 q 711 125 765 179 q 416 3 589 3 m 686 429 q 742 484 686 429 q 798 697 798 540 q 686 966 798 854 q 416 1078 574 1078 q 148 966 259 1078 q 37 697 37 854 q 148 429 37 540 q 416 317 259 317 q 686 429 574 317 z "},"\u001f":{"ha":442,"x_min":0,"x_max":233,"o":"m 0 438 l 0 475 l 233 475 l 233 438 l 0 438 z "}," ":{"ha":567,"x_min":0,"x_max":0,"o":""},"!":{"ha":543,"x_min":0,"x_max":104,"o":"m 0 53 q 53 104 0 104 q 104 53 104 104 q 53 0 104 0 q 0 53 0 0 m 34 248 l 34 1115 l 71 1115 l 71 248 l 34 248 z "},"\"":{"ha":282,"x_min":0,"x_max":115,"o":"m 0 690 l 0 852 l 38 852 l 38 690 l 0 690 m 77 690 l 77 852 l 115 852 l 115 690 l 77 690 z "},"#":{"ha":1421,"x_min":0,"x_max":1222,"o":"m 457 529 l 431 496 l 388 496 l 435 557 l 457 586 l 530 680 l 575 680 l 479 557 l 457 529 m 914 1115 l 604 716 l 559 716 l 869 1115 l 914 1115 m 0 0 l 358 460 l 403 460 l 45 0 l 0 0 m 307 0 l 665 460 l 709 460 l 353 0 l 307 0 m 764 586 l 837 680 l 882 680 l 788 557 l 764 529 l 739 496 l 694 496 l 742 557 l 764 586 m 1222 1115 l 911 716 l 867 716 l 1176 1115 l 1222 1115 m 867 716 l 911 716 l 1213 716 l 1213 680 l 882 680 l 837 680 l 575 680 l 530 680 l 189 680 l 189 716 l 559 716 l 604 716 l 867 716 m 431 496 l 694 496 l 739 496 l 1077 496 l 1077 460 l 709 460 l 665 460 l 403 460 l 358 460 l 53 460 l 53 496 l 388 496 l 431 496 z "},"$":{"ha":994,"x_min":0,"x_max":823,"o":"m 823 351 q 735 104 823 201 q 502 0 643 3 l 500 0 l 499 0 l 39 0 l 0 0 l 0 38 l 381 38 l 381 16 l 418 16 l 418 38 l 499 38 l 499 38 q 707 126 625 38 q 788 351 788 214 q 696 573 788 481 q 473 665 604 665 l 473 665 l 418 665 l 418 701 l 473 701 q 721 599 618 701 q 823 351 823 496 m 225 701 l 381 701 l 381 665 l 225 665 l 225 665 l 217 665 q 63 733 126 667 q 0 890 0 799 q 64 1046 0 981 q 218 1115 127 1112 l 222 1115 l 225 1115 l 247 1115 l 623 1115 l 623 1078 l 418 1078 l 418 1095 l 381 1095 l 381 1078 l 225 1078 q 92 1023 146 1078 q 38 890 38 968 q 92 756 38 811 q 225 701 146 701 m 418 16 l 381 16 l 381 38 l 381 665 l 381 701 l 381 1078 l 381 1095 l 418 1095 l 418 1078 l 418 701 l 418 665 l 418 38 l 418 16 z "},"%":{"ha":1137,"x_min":-4,"x_max":911,"o":"m 865 1115 l 911 1115 l 476 557 l 454 529 l 42 0 l -4 0 l 430 557 l 454 586 l 865 1115 m 659 254 q 681 275 659 254 q 762 297 703 297 q 866 254 822 297 q 910 151 910 210 q 866 47 910 91 q 762 3 822 3 q 659 47 703 3 q 616 151 616 91 q 659 254 616 210 m 684 73 q 700 57 684 73 q 762 41 716 41 q 840 73 808 41 q 872 151 872 104 q 840 228 872 197 q 762 259 808 259 q 684 228 716 259 q 652 151 652 197 q 684 73 652 104 m 254 862 q 233 840 254 862 q 152 818 212 818 q 48 862 92 818 q 4 966 4 906 q 48 1069 4 1025 q 152 1112 92 1112 q 254 1069 212 1112 q 297 966 297 1025 q 254 862 297 906 m 230 1044 q 214 1060 230 1044 q 152 1076 198 1076 q 74 1044 106 1076 q 42 966 42 1012 q 74 888 42 920 q 152 856 106 856 q 230 888 198 856 q 262 966 262 920 q 230 1044 262 1012 z "},"&":{"ha":994,"x_min":0,"x_max":812,"o":"m 682 138 q 551 39 629 75 q 387 3 472 3 q 114 115 227 3 q 0 389 0 229 q 35 549 0 481 q 133 681 69 617 q 203 724 163 708 l 178 755 q 142 880 142 814 q 212 1045 142 977 q 377 1114 281 1114 q 543 1045 473 1114 q 612 880 612 977 q 536 746 612 783 q 392 718 494 727 q 266 704 290 709 l 681 198 q 736 389 736 281 q 718 500 736 444 l 753 513 q 773 389 773 453 q 704 170 773 269 l 812 38 l 785 15 l 682 138 m 239 735 q 377 753 290 747 q 441 758 420 755 q 492 768 461 761 q 538 788 524 776 q 564 824 552 800 q 575 880 575 848 q 517 1021 575 963 q 377 1078 460 1078 q 237 1021 294 1078 q 179 880 179 963 q 225 753 179 810 l 239 735 m 387 39 q 658 168 553 39 l 227 693 q 159 654 187 680 q 37 389 37 532 q 139 142 37 244 q 387 39 241 39 z "},"'":{"ha":320,"x_min":87,"x_max":125,"o":"m 87 690 l 87 852 l 125 852 l 125 690 l 87 690 z "},"(":{"ha":646,"x_min":0,"x_max":307,"o":"m 307 1 q 208 42 263 1 q 109 152 155 81 q 31 326 58 225 q 0 559 0 435 q 31 792 0 682 q 107 966 57 890 q 204 1074 151 1035 q 307 1114 258 1114 l 307 1077 q 227 1045 273 1077 q 137 945 180 1013 q 38 559 38 791 q 138 171 38 328 q 225 73 179 106 q 307 39 271 39 l 307 1 z "},")":{"ha":741,"x_min":95,"x_max":401,"o":"m 95 1 l 95 39 q 176 73 130 39 q 263 171 222 106 q 365 559 365 330 q 264 945 365 788 q 175 1045 221 1013 q 95 1077 129 1077 l 95 1114 q 197 1074 144 1114 q 294 966 251 1035 q 372 792 346 886 q 401 559 401 686 q 372 326 401 431 q 293 152 345 229 q 195 42 245 79 q 95 1 140 1 z "},"*":{"ha":639,"x_min":80,"x_max":559,"o":"m 302 331 l 302 301 l 279 301 l 102 529 l 80 557 l 125 557 l 302 331 m 338 227 l 338 264 l 354 264 l 559 0 l 515 0 l 338 227 m 288 264 l 302 264 l 302 227 l 125 0 l 80 0 l 288 264 m 361 301 l 338 301 l 338 332 l 515 557 l 559 557 l 537 529 l 361 301 m 338 301 l 361 301 l 559 301 l 559 264 l 354 264 l 338 264 l 338 227 l 338 0 l 302 0 l 302 227 l 302 264 l 288 264 l 80 264 l 80 301 l 279 301 l 302 301 l 302 331 l 302 557 l 338 557 l 338 332 l 338 301 z "},"+":{"ha":639,"x_min":80,"x_max":559,"o":"m 559 302 l 559 266 l 338 266 l 338 0 l 302 0 l 302 266 l 80 266 l 80 302 l 302 302 l 302 557 l 338 557 l 338 302 l 559 302 z "},",":{"ha":407,"x_min":184,"x_max":222,"o":"m 184 -96 l 184 96 l 222 96 l 222 -96 l 184 -96 z "},"-":{"ha":426,"x_min":96,"x_max":330,"o":"m 96 438 l 96 475 l 330 475 l 330 438 l 96 438 z "},".":{"ha":407,"x_min":151,"x_max":256,"o":"m 152 53 q 203 104 152 104 q 255 53 255 104 q 203 0 255 0 q 152 53 152 0 z "},"/":{"ha":1221,"x_min":153,"x_max":1067,"o":"m 1067 1115 l 632 557 l 610 529 l 198 0 l 153 0 l 589 557 l 610 586 l 1023 1115 l 1067 1115 z "},":":{"ha":407,"x_min":151,"x_max":256,"o":"m 152 53 q 203 104 152 104 q 255 53 255 104 q 203 0 255 0 q 152 53 152 0 m 152 289 q 203 340 152 340 q 255 289 255 340 q 203 236 255 236 q 152 289 152 236 z "},";":{"ha":407,"x_min":151,"x_max":256,"o":"m 152 53 q 203 104 152 104 q 255 53 255 104 q 203 0 255 0 q 152 53 152 0 m 184 -240 l 184 -50 l 222 -50 l 222 -240 l 184 -240 z "},"=":{"ha":426,"x_min":96,"x_max":330,"o":"m 96 107 l 96 144 l 330 144 l 330 107 l 96 107 m 96 237 l 96 275 l 330 275 l 330 237 l 96 237 z "},"?":{"ha":678,"x_min":125,"x_max":553,"o":"m 125 53 q 179 104 125 104 q 231 53 231 104 q 179 0 231 0 q 125 53 125 0 m 437 1008 q 553 750 553 902 q 437 494 553 600 q 193 389 334 401 l 193 235 l 157 235 l 157 388 l 157 422 l 157 423 q 410 519 304 423 q 515 750 515 616 q 410 981 515 884 q 157 1077 304 1077 l 157 1114 q 437 1008 320 1114 z "},"@":{"ha":1421,"x_min":4,"x_max":1272,"o":"m 1048 43 q 1012 11 1048 43 l 1012 1 l 1012 297 q 925 171 982 228 q 624 46 800 46 q 323 171 448 46 q 197 472 197 297 q 323 772 197 646 q 624 898 449 898 q 925 772 799 898 q 1012 646 982 715 q 1048 469 1048 589 l 1048 43 m 1012 469 l 1012 473 q 897 747 1010 635 q 624 860 784 860 q 349 746 463 860 q 235 472 235 632 q 349 197 235 312 q 624 83 464 83 q 897 195 784 83 q 1012 469 1010 308 m 1059 899 q 972 986 1059 899 q 637 1074 884 1074 q 216 899 391 1074 q 41 476 41 723 q 98 220 41 342 q 259 14 156 99 q 637 -121 420 -121 q 933 -42 795 -121 l 951 -73 q 637 -157 802 -157 q 420 -119 528 -157 q 236 -14 319 -81 q 64 205 125 77 q 4 476 4 334 q 54 724 4 610 q 189 925 106 842 q 391 1061 273 1009 q 637 1109 502 1109 q 884 1061 773 1109 q 1086 925 1002 1009 q 1222 724 1172 840 q 1272 476 1272 610 q 1195 189 1272 338 q 1012 -34 1118 41 l 1012 1 l 1012 11 q 1023 21 1016 15 q 1037 33 1031 27 q 1048 43 1043 38 q 1185 242 1135 129 q 1234 476 1234 355 q 1059 899 1234 723 z "},"A":{"ha":1137,"x_min":-68,"x_max":928,"o":"m 892 0 l 627 618 l 233 618 l -33 0 l -68 0 l 412 1115 l 448 1115 l 928 0 l 892 0 m 248 651 l 612 651 l 430 1074 l 248 651 z "},"B":{"ha":994,"x_min":0,"x_max":811,"o":"m 811 350 q 712 103 811 209 q 477 0 613 0 l 37 0 l 0 0 l 0 1115 l 33 1115 l 477 1115 q 681 1053 610 1115 q 750 890 750 993 q 667 709 750 764 q 597 680 636 689 q 712 598 661 654 q 811 350 811 492 m 713 890 q 652 1029 713 979 q 476 1078 590 1078 l 37 1078 l 37 703 l 476 703 q 647 741 586 703 q 713 890 713 785 m 773 350 q 692 568 773 476 q 494 667 610 661 l 37 667 l 37 38 l 476 38 q 686 130 600 38 q 773 350 773 221 z "},"C":{"ha":1023,"x_min":0,"x_max":853,"o":"m 0 559 q 137 949 0 788 q 288 1072 208 1034 q 472 1115 373 1115 q 689 1055 583 1115 q 853 890 795 996 l 807 890 q 656 1029 745 979 q 472 1078 568 1078 q 165 926 292 1078 q 38 559 38 774 q 165 191 38 343 q 472 38 292 38 q 652 85 566 38 q 800 216 738 132 l 842 216 q 679 58 781 117 q 472 0 576 0 q 288 45 374 0 q 137 165 206 84 q 0 559 -3 330 z "},"D":{"ha":1137,"x_min":0,"x_max":868,"o":"m 868 563 q 868 557 868 563 q 868 552 868 557 l 868 552 q 852 368 867 449 q 810 229 838 286 q 743 130 783 171 q 654 64 704 88 q 545 24 604 39 q 418 5 486 9 q 277 -2 351 0 q 122 -1 202 -4 q 0 0 42 0 l 0 1115 l 23 1115 q 368 1114 321 1116 q 720 1008 610 1100 q 868 564 865 883 l 868 563 m 38 38 q 140 37 72 38 q 503 57 397 34 q 777 260 704 98 q 830 557 829 373 q 811 753 830 669 q 759 892 792 837 q 676 985 726 948 q 569 1042 627 1023 q 439 1069 511 1061 q 295 1080 368 1078 q 137 1080 222 1081 q 52 1078 80 1078 l 34 1078 l 38 38 z "},"E":{"ha":955,"x_min":0,"x_max":751,"o":"m 751 38 l 751 0 l 477 0 l 38 0 l 0 0 l 0 1115 l 34 1115 l 477 1115 l 751 1115 l 751 1078 l 38 1078 l 38 703 l 476 703 l 751 703 l 751 667 l 38 667 l 38 38 l 751 38 z "},"F":{"ha":922,"x_min":0,"x_max":751,"o":"m 38 38 l 38 0 l 0 0 l 0 1115 l 34 1115 l 477 1115 l 751 1115 l 751 1078 l 38 1078 l 38 703 l 476 703 l 751 703 l 751 667 l 38 667 l 38 38 z "},"G":{"ha":1207,"x_min":0,"x_max":944,"o":"m 944 560 q 944 559 944 560 q 807 165 944 327 q 656 45 738 84 q 472 0 570 0 l 472 0 l 472 0 q 288 45 374 0 q 137 165 206 84 q 0 559 0 327 q 137 949 0 788 q 288 1072 208 1034 q 472 1115 373 1115 l 472 1115 l 472 1115 q 656 1072 571 1115 q 807 949 736 1034 q 873 852 856 887 l 830 852 q 675 1017 769 956 q 472 1078 582 1078 q 165 926 292 1078 q 38 559 38 774 q 165 191 38 343 q 472 38 292 38 q 770 179 643 38 q 907 524 897 320 l 620 524 l 620 560 l 941 560 l 944 560 z "},"H":{"ha":994,"x_min":0,"x_max":751,"o":"m 718 1115 l 751 1115 l 751 703 l 751 667 l 751 0 l 715 0 l 715 38 l 715 667 l 377 667 l 38 667 l 38 38 l 38 0 l 0 0 l 0 667 l 0 703 l 0 1115 l 34 1115 l 38 1115 l 38 703 l 377 703 l 715 703 l 715 1115 l 718 1115 z "},"I":{"ha":445,"x_min":68,"x_max":106,"o":"m 106 38 l 106 0 l 68 0 l 68 1115 l 102 1115 l 106 1115 l 106 667 l 106 38 z "},"J":{"ha":852,"x_min":1,"x_max":647,"o":"m 647 1115 l 647 335 q 553 99 647 195 q 324 0 458 0 q 96 99 191 0 q 1 315 8 190 l 1 426 l 39 426 l 39 336 q 123 125 39 213 q 324 38 206 38 q 526 125 442 38 q 610 336 610 213 l 610 1115 l 647 1115 z "},"K":{"ha":922,"x_min":0,"x_max":761,"o":"m 43 673 l 761 0 l 708 0 l 38 628 l 38 0 l 0 0 l 0 1115 l 38 1115 l 38 712 l 640 1115 l 707 1115 l 43 673 z "},"L":{"ha":994,"x_min":0,"x_max":846,"o":"m 846 38 l 846 0 l 38 0 l 0 0 l 0 1115 l 38 1115 l 38 38 l 846 38 z "},"M":{"ha":1207,"x_min":0,"x_max":987,"o":"m 949 1115 l 987 1115 l 987 0 l 949 0 l 949 1028 l 513 0 l 513 0 l 472 0 l 472 0 l 38 1021 l 38 0 l 0 0 l 0 1115 l 38 1115 l 38 1115 l 491 47 l 947 1115 l 949 1115 z "},"N":{"ha":1023,"x_min":0,"x_max":760,"o":"m 722 1115 l 760 1115 l 760 0 l 722 0 l 715 0 l 38 1059 l 38 0 l 0 0 l 0 1115 l 1 1115 l 38 1115 l 45 1115 l 722 57 l 722 1115 z "},"O":{"ha":1137,"x_min":0,"x_max":944,"o":"m 656 45 q 472 0 570 0 q 288 45 374 0 q 137 165 206 84 q 0 559 0 327 q 137 949 0 788 q 288 1072 208 1034 q 472 1115 373 1115 q 656 1072 571 1115 q 807 949 736 1034 q 944 559 944 788 q 807 165 944 327 q 656 45 738 84 m 165 191 q 228 114 165 191 q 472 38 292 38 q 780 191 652 38 q 907 559 907 343 q 780 926 907 774 q 472 1078 652 1078 q 165 926 292 1078 q 38 559 38 774 q 165 191 38 343 z "},"P":{"ha":922,"x_min":0,"x_max":750,"o":"m 750 890 q 667 709 750 764 q 494 667 618 667 q 37 667 494 667 l 37 38 l 37 0 l 0 0 l 0 1115 l 33 1115 l 477 1115 q 681 1053 610 1115 q 750 890 750 993 m 37 703 l 476 703 q 647 741 586 703 q 713 890 713 785 q 652 1029 713 979 q 476 1078 590 1078 l 37 1078 l 37 703 z "},"Q":{"ha":1207,"x_min":0,"x_max":944,"o":"m 472 0 l 472 0 l 472 0 q 288 45 374 0 q 137 165 206 84 q 0 559 0 327 q 137 949 0 788 q 288 1072 208 1034 q 472 1115 373 1115 l 472 1115 l 472 1115 q 656 1072 571 1115 q 807 949 736 1034 q 944 559 944 788 q 810 168 944 332 l 930 0 l 884 0 l 785 140 q 656 45 730 80 q 472 0 570 0 m 472 38 q 764 171 639 38 l 600 400 l 646 400 l 788 199 q 907 559 907 351 q 780 926 907 774 q 472 1078 652 1078 q 165 926 292 1078 q 38 559 38 774 q 165 191 38 343 q 472 38 292 38 z "},"R":{"ha":994,"x_min":0,"x_max":770,"o":"m 486 667 l 770 0 l 731 0 l 446 667 q 38 667 446 667 l 38 38 l 38 0 l 0 0 l 0 1115 l 34 1115 l 477 1115 q 682 1053 612 1115 q 751 890 751 993 q 669 709 751 764 q 495 667 620 667 l 486 667 m 38 703 l 476 703 q 647 742 583 703 q 713 890 713 787 q 652 1029 713 979 q 476 1078 590 1078 l 38 1078 l 38 703 z "},"S":{"ha":1066,"x_min":0,"x_max":823,"o":"m 225 701 l 473 701 q 721 599 618 701 q 823 351 823 496 q 735 104 823 201 q 502 0 643 3 l 500 0 l 499 0 l 499 0 l 39 0 l 0 0 l 0 38 l 499 38 l 499 38 q 707 126 625 38 q 788 351 788 214 q 696 573 788 481 q 473 665 604 665 l 473 665 l 225 665 l 225 665 l 217 665 q 63 733 126 667 q 0 890 0 799 q 64 1046 0 981 q 218 1115 127 1112 l 222 1115 l 225 1115 l 247 1115 l 623 1115 l 623 1078 l 225 1078 q 92 1023 146 1078 q 38 890 38 968 q 92 756 38 811 q 225 701 146 701 z "},"T":{"ha":1207,"x_min":-68,"x_max":975,"o":"m 472 1115 l 975 1115 l 975 1078 l 472 1078 l 472 0 l 435 0 l 435 1078 l -68 1078 l -68 1115 l 435 1115 l 472 1115 z "},"U":{"ha":994,"x_min":1,"x_max":814,"o":"m 146 125 q 200 81 146 125 q 407 38 254 38 q 668 125 560 38 q 776 336 776 212 l 776 1115 l 814 1115 l 814 335 q 693 98 814 195 q 407 0 574 0 q 122 98 241 0 q 3 315 11 187 l 1 315 l 1 1115 l 39 1115 l 39 336 q 146 125 39 212 z "},"V":{"ha":1194,"x_min":-68,"x_max":928,"o":"m 928 1115 l 448 0 l 412 0 l -68 1115 l -33 1115 l 233 496 l 248 464 l 430 42 l 612 464 l 627 496 l 892 1115 l 928 1115 z "},"W":{"ha":1393,"x_min":0,"x_max":1309,"o":"m 848 853 l 883 853 l 515 0 l 515 0 l 480 0 l 0 1115 l 35 1115 l 301 496 l 316 464 l 498 42 l 680 464 l 694 496 l 848 853 m 1309 1115 l 827 0 l 827 0 l 792 0 l 425 853 l 460 853 l 614 496 l 628 464 l 810 42 l 991 464 l 1005 496 l 1272 1115 l 1309 1115 z "},"X":{"ha":1137,"x_min":0,"x_max":966,"o":"m 966 1115 l 507 557 l 966 0 l 918 0 l 483 529 l 47 0 l 0 0 l 460 557 l 0 1115 l 47 1115 l 483 586 l 918 1115 l 966 1115 z "},"Y":{"ha":1137,"x_min":0,"x_max":966,"o":"m 966 1115 l 507 557 l 502 552 l 502 0 l 464 0 l 464 552 l 460 557 l 0 1115 l 47 1115 l 483 586 l 918 1115 l 966 1115 z "},"Z":{"ha":1279,"x_min":0,"x_max":1043,"o":"m 540 38 l 1043 38 l 1043 0 l 540 0 l 503 0 l 0 0 l 0 38 l 993 1078 l 540 1078 l 503 1078 l 0 1078 l 0 1115 l 503 1115 l 503 1115 l 540 1115 l 1043 1115 l 1043 1078 l 50 38 l 503 38 l 503 38 l 540 38 z "},"\\":{"ha":1055,"x_min":0,"x_max":914,"o":"m 435 557 l 0 1115 l 45 1115 l 457 586 l 479 557 l 914 0 l 869 0 l 457 529 l 435 557 z "},"_":{"ha":426,"x_min":0,"x_max":233,"o":"m 0 438 l 0 475 l 233 475 l 233 438 l 0 438 z "},"`":{"ha":1421,"x_min":0,"x_max":38,"o":"m 0 690 l 0 852 l 38 852 l 38 690 l 0 690 z "},"a":{"ha":1108,"x_min":0,"x_max":852,"o":"m 815 0 l 815 251 q 728 125 785 182 q 426 0 604 0 q 125 125 250 0 q 0 426 0 250 q 125 727 0 602 q 426 852 250 852 q 728 727 604 852 q 815 600 784 670 l 815 852 l 852 852 l 852 429 l 852 426 l 852 423 l 852 0 l 815 0 m 815 423 l 815 427 q 700 702 814 589 q 426 815 586 815 q 152 701 266 815 q 38 426 38 587 q 152 152 38 266 q 426 38 266 38 q 701 151 587 38 q 815 423 814 263 z "},"b":{"ha":1066,"x_min":0,"x_max":852,"o":"m 728 727 q 852 426 852 604 q 728 125 852 248 q 426 0 604 0 q 125 125 250 0 q 38 251 68 182 l 38 0 l 0 0 l 0 1115 l 38 1115 l 38 600 q 125 727 68 670 q 426 852 250 852 q 728 727 604 852 m 426 38 q 701 152 587 38 q 815 426 815 266 q 701 701 815 586 q 426 815 586 815 q 152 701 266 815 q 38 426 38 587 q 152 152 38 266 q 426 38 266 38 z "},"c":{"ha":1023,"x_min":0,"x_max":804,"o":"m 426 0 q 125 125 250 0 q 0 426 0 250 q 125 727 0 602 q 426 852 250 852 q 616 808 530 852 q 776 669 697 769 l 732 669 q 597 777 678 739 q 426 815 517 815 q 152 701 266 815 q 38 426 38 587 q 152 152 38 266 q 426 38 266 38 q 620 87 529 38 q 764 225 711 137 l 804 225 q 729 130 774 178 q 639 57 684 83 q 426 0 543 0 z "},"d":{"ha":1137,"x_min":0,"x_max":853,"o":"m 817 1115 l 853 1115 l 853 0 l 817 0 l 817 255 q 728 125 787 183 q 426 0 604 0 q 125 125 250 0 q 0 426 0 250 q 125 727 0 602 q 426 852 250 852 q 728 727 604 852 q 817 597 787 669 l 817 1115 m 426 38 q 701 152 587 38 q 815 426 815 266 q 701 701 815 586 q 426 815 586 815 q 152 701 266 815 q 38 426 38 587 q 152 152 38 266 q 426 38 266 38 z "},"e":{"ha":1066,"x_min":0,"x_max":850,"o":"m 845 456 l 39 456 q 38 426 38 446 q 152 152 38 266 q 426 38 266 38 q 627 93 532 38 q 772 241 722 148 l 811 241 q 647 68 754 137 q 426 0 540 0 q 125 125 250 0 q 0 426 0 250 q 125 727 0 602 q 426 852 250 852 q 716 738 594 852 q 850 456 838 625 l 845 456 m 426 815 q 176 723 283 815 q 43 494 68 631 l 810 494 q 676 724 785 632 q 426 815 567 815 z "},"f":{"ha":922,"x_min":0,"x_max":826,"o":"m 426 1138 q 569 1116 503 1138 q 676 1062 635 1093 q 751 988 718 1031 q 799 915 784 945 q 826 853 814 884 l 788 853 q 648 1034 746 967 q 426 1101 549 1101 q 152 987 266 1101 q 38 712 38 873 l 38 684 l 38 533 l 571 533 l 571 496 l 38 496 l 38 0 l 0 0 l 0 697 l 0 730 q 125 1012 7 894 q 426 1138 251 1138 z "},"g":{"ha":1108,"x_min":0,"x_max":852,"o":"m 852 852 l 852 125 q 728 -160 845 -43 q 426 -285 604 -285 q 179 -206 289 -285 q 24 0 72 -130 l 65 0 q 205 -180 107 -114 q 426 -247 302 -247 q 701 -133 587 -247 q 815 141 815 -19 l 815 252 q 728 125 784 182 q 426 0 604 0 q 125 125 250 0 q 0 426 0 250 q 125 727 0 602 q 426 852 250 852 q 728 727 604 852 q 815 600 784 670 l 815 852 l 852 852 m 426 38 q 701 152 587 38 q 815 426 815 266 q 701 701 815 586 q 426 815 586 815 q 152 701 266 815 q 38 426 38 587 q 152 152 38 266 q 426 38 266 38 z "},"h":{"ha":994,"x_min":0,"x_max":727,"o":"m 727 532 l 727 0 l 692 0 l 692 530 q 593 728 692 646 q 357 810 495 810 q 136 733 227 810 q 38 544 45 656 l 38 38 l 38 0 l 0 0 l 0 1115 l 38 1115 l 38 673 q 103 754 62 719 q 357 846 208 846 q 617 754 507 846 q 727 532 727 661 z "},"i":{"ha":480,"x_min":0,"x_max":38,"o":"m 38 509 l 38 27 l 38 0 l 0 0 l 0 852 l 38 852 l 38 509 m 18 1005 q 0 1024 0 1005 q 18 1043 0 1043 q 38 1024 38 1043 q 18 1005 38 1005 z "},"j":{"ha":1066,"x_min":-41,"x_max":785,"o":"m 361 -248 q 636 -134 522 -248 q 750 140 750 -20 l 750 852 l 785 852 l 785 123 q 661 -161 779 -43 q 361 -285 537 -285 q 114 -208 222 -285 q -41 -1 7 -132 l 0 -1 q 140 -182 42 -115 q 361 -248 237 -248 z "},"k":{"ha":1051,"x_min":0,"x_max":793,"o":"m 170 521 l 793 0 l 747 0 l 141 499 l 38 412 l 38 0 l 0 0 l 0 1115 l 38 1115 l 38 458 l 526 852 l 572 852 l 170 521 z "},"l":{"ha":426,"x_min":0,"x_max":38,"o":"m 38 38 l 38 0 l 0 0 l 0 1115 l 34 1115 l 38 1115 l 38 667 l 38 38 z "},"m":{"ha":1634,"x_min":0,"x_max":1416,"o":"m 692 0 l 692 530 q 593 728 692 646 q 357 810 495 810 q 135 733 227 810 q 37 544 43 656 l 38 509 l 38 27 l 38 0 l 0 0 l 0 852 l 38 852 l 38 673 q 103 754 62 719 q 357 846 208 846 q 617 754 507 846 q 708 628 681 700 q 793 754 730 697 q 1047 846 898 846 q 1308 754 1198 846 q 1416 532 1416 662 l 1416 0 l 1381 0 l 1381 530 q 1283 728 1381 646 q 1047 810 1185 810 q 823 732 916 810 q 727 541 731 655 l 727 532 l 727 0 l 692 0 z "},"n":{"ha":994,"x_min":0,"x_max":727,"o":"m 727 532 l 727 0 l 692 0 l 692 530 q 593 728 692 646 q 357 810 495 810 q 136 733 227 810 q 38 544 45 656 l 38 509 l 38 27 l 38 0 l 0 0 l 0 852 l 38 852 l 38 673 q 103 754 62 719 q 357 846 208 846 q 617 754 507 846 q 727 532 727 661 z "},"o":{"ha":1023,"x_min":0,"x_max":852,"o":"m 426 0 q 125 125 250 0 q 0 426 0 250 q 125 727 0 602 q 426 852 250 852 q 728 727 604 852 q 852 426 852 604 q 728 125 852 248 q 426 0 604 0 m 701 152 q 758 209 701 152 q 815 426 815 266 q 701 701 815 586 q 426 815 586 815 q 152 701 266 815 q 38 426 38 587 q 152 152 38 266 q 426 38 266 38 q 701 152 587 38 z "},"p":{"ha":1036,"x_min":0,"x_max":852,"o":"m 728 727 q 852 426 852 604 q 728 125 852 248 q 426 0 604 0 q 125 125 250 0 q 38 251 68 182 l 38 -285 l 0 -285 l 0 852 l 38 852 l 38 600 q 125 727 68 670 q 426 852 250 852 q 728 727 604 852 m 426 38 q 701 152 587 38 q 815 426 815 266 q 701 701 815 586 q 426 815 586 815 q 152 701 266 815 q 38 426 38 587 q 152 152 38 266 q 426 38 266 38 z "},"q":{"ha":1066,"x_min":0,"x_max":856,"o":"m 0 426 q 125 728 0 604 q 426 852 248 852 q 728 728 605 852 q 818 593 787 670 l 818 852 l 856 852 l 856 -285 l 818 -285 l 818 258 q 728 125 788 184 q 426 0 604 0 q 125 125 250 0 q 0 426 0 250 m 701 152 q 758 209 701 152 q 815 426 815 266 q 701 701 815 586 q 426 815 586 815 q 152 701 266 815 q 38 426 38 587 q 152 152 38 266 q 426 38 266 38 q 701 152 587 38 z "},"r":{"ha":966,"x_min":0,"x_max":827,"o":"m 426 852 q 521 842 473 852 q 629 804 568 831 q 742 717 689 777 q 827 568 795 656 l 788 568 q 648 749 747 682 q 426 815 549 815 q 152 701 266 815 q 38 426 38 587 l 38 397 l 38 247 l 38 212 l 38 0 l 0 0 l 0 411 l 1 444 l 0 444 l 0 852 l 38 852 l 38 600 q 125 728 69 673 q 426 852 248 852 z "},"s":{"ha":922,"x_min":0,"x_max":715,"o":"m 643 444 q 679 406 643 444 q 715 263 715 368 q 643 83 715 159 q 468 0 571 7 l 0 0 l 0 38 l 453 38 q 612 104 547 38 q 678 263 678 170 q 612 422 678 357 q 453 488 547 488 l 453 490 l 180 490 q 56 545 107 491 q 5 671 5 598 q 58 799 5 746 q 186 852 111 852 l 574 852 l 574 815 l 186 815 q 85 773 127 815 q 43 671 43 731 q 85 569 43 612 q 186 526 127 526 l 468 526 q 643 444 571 519 z "},"t":{"ha":935,"x_min":27,"x_max":853,"o":"m 453 38 q 675 104 576 38 q 815 285 774 171 l 853 285 q 700 79 804 153 q 453 0 590 0 q 152 125 277 0 q 27 410 34 243 l 27 442 l 27 1115 l 65 1115 l 65 871 l 598 871 l 598 833 l 65 833 l 65 642 l 65 605 l 65 456 l 65 426 q 179 152 65 266 q 453 38 293 38 z "},"u":{"ha":1080,"x_min":0,"x_max":852,"o":"m 437 0 l 435 0 q 427 0 435 0 q 425 0 427 0 q 178 79 288 0 q 106 146 144 103 q 0 410 7 260 l 0 441 l 0 852 l 38 852 l 38 642 l 38 604 l 38 456 l 38 426 q 64 285 38 355 l 64 282 q 206 106 107 174 q 426 38 305 38 q 645 106 547 39 q 787 282 743 174 l 787 283 l 788 285 q 814 426 814 355 l 814 456 l 814 604 l 814 642 l 814 852 l 852 852 l 852 441 l 850 410 q 745 144 844 256 q 673 79 719 113 q 437 0 567 3 z "},"v":{"ha":966,"x_min":-27,"x_max":742,"o":"m 742 852 l 376 0 l 358 0 l 339 0 l -27 852 l 8 852 l 274 233 l 289 199 l 358 41 l 427 199 l 441 233 l 708 852 l 742 852 z "},"w":{"ha":1421,"x_min":0,"x_max":1219,"o":"m 1183 852 l 1219 852 l 853 0 l 834 0 l 817 0 l 610 479 l 403 0 l 385 0 l 366 0 l 0 852 l 35 852 l 301 233 l 316 199 l 385 41 l 454 199 l 468 233 l 591 521 l 628 521 l 751 233 l 765 199 l 834 41 l 903 199 l 918 233 l 1183 852 z "},"x":{"ha":994,"x_min":0,"x_max":750,"o":"m 750 852 l 399 425 l 750 0 l 700 0 l 374 396 l 50 0 l 0 0 l 350 425 l 0 852 l 47 852 l 374 454 l 701 852 l 750 852 z "},"y":{"ha":1051,"x_min":0,"x_max":850,"o":"m 425 0 q 178 79 288 0 q 106 146 144 103 q 0 410 7 260 l 0 852 l 38 852 l 37 425 q 64 282 37 345 q 206 106 107 174 q 426 38 305 38 q 646 106 540 38 q 787 282 753 175 q 807 467 800 324 q 814 730 814 609 l 814 852 l 850 852 l 850 125 q 745 -140 844 -27 q 673 -206 716 -175 q 425 -285 564 -285 q 178 -206 288 -285 q 106 -138 144 -182 q 23 0 47 -72 l 64 0 q 206 -178 107 -109 q 426 -247 305 -247 q 642 -178 538 -247 q 787 -3 745 -109 q 797 20 791 4 q 811 100 803 35 q 814 251 819 165 q 745 144 795 201 q 673 79 719 113 q 425 0 564 0 z "},"z":{"ha":994,"x_min":0,"x_max":750,"o":"m 750 852 l 80 38 l 750 38 l 750 0 l 47 0 l 0 0 l 671 815 l 0 815 l 0 852 l 701 852 l 712 852 l 750 852 z "},"¿":{"ha":567,"x_min":0,"x_max":427,"o":"m 374 1009 q 323 1062 323 1009 q 374 1115 323 1115 q 427 1062 427 1115 q 374 1009 427 1009 m 396 1 q 117 107 233 1 q 0 365 0 213 q 117 623 0 517 q 359 727 220 715 l 359 880 l 396 880 l 396 728 l 396 693 l 396 692 q 141 595 248 692 q 38 365 38 502 q 141 134 38 228 q 396 39 245 39 l 396 1 z "},"à":{"ha":1062,"x_min":0,"x_max":852,"o":"m 609 939 l 544 939 l 305 1115 l 368 1115 l 609 939 m 852 429 q 852 426 852 429 q 852 423 852 426 l 852 1 l 814 1 l 814 252 q 727 126 784 183 q 426 1 602 1 q 125 126 250 1 q 0 426 0 251 q 125 728 0 604 q 426 853 250 853 q 727 728 602 853 q 814 601 784 673 l 814 853 l 852 853 l 852 429 m 814 425 l 814 429 q 699 703 812 590 q 426 815 586 815 q 152 701 266 815 q 38 426 38 587 q 152 152 38 266 q 426 38 266 38 q 699 151 586 38 q 814 425 812 263 z "},"ç":{"ha":1015,"x_min":0,"x_max":803,"o":"m 762 227 l 803 227 q 728 132 773 179 q 637 58 682 84 q 441 3 551 7 l 441 19 l 404 19 l 404 3 q 125 126 240 11 q 0 427 0 251 q 125 730 0 605 q 426 854 250 854 q 614 810 526 854 q 699 751 654 791 q 774 671 743 712 l 732 671 q 597 779 678 742 q 426 817 517 817 q 152 703 266 817 q 38 427 38 589 q 152 153 38 266 q 426 39 266 39 q 619 89 529 39 q 762 227 709 138 m 404 19 l 441 19 l 441 3 l 441 -46 q 522 -83 488 -49 q 556 -165 556 -118 q 522 -250 556 -216 q 437 -285 487 -285 l 437 -247 q 495 -224 472 -247 q 518 -165 518 -201 q 494 -106 518 -130 q 437 -81 471 -81 l 404 -81 l 404 3 l 404 19 z "},"è":{"ha":1067,"x_min":0,"x_max":850,"o":"m 715 738 q 850 456 838 624 l 845 456 l 38 456 q 38 426 38 456 q 152 152 38 266 q 426 38 266 38 q 627 93 532 38 q 772 241 722 148 l 811 241 q 647 68 754 137 q 426 0 540 0 q 125 125 250 0 q 0 426 0 250 q 125 727 0 602 q 426 852 250 852 q 715 738 593 852 m 43 494 l 808 494 q 675 724 784 632 q 426 815 567 815 q 176 723 283 815 q 43 494 68 631 m 609 939 l 544 939 l 305 1115 l 368 1115 l 609 939 z "},"é":{"ha":1067,"x_min":0,"x_max":850,"o":"m 715 738 q 850 456 838 624 l 845 456 l 38 456 q 38 426 38 456 q 152 152 38 266 q 426 38 266 38 q 627 93 532 38 q 772 241 722 148 l 811 241 q 647 68 754 137 q 426 0 540 0 q 125 125 250 0 q 0 426 0 250 q 125 727 0 602 q 426 852 250 852 q 715 738 593 852 m 43 494 l 808 494 q 675 724 784 632 q 426 815 567 815 q 176 723 283 815 q 43 494 68 631 m 606 1115 l 366 939 l 304 939 l 544 1115 l 606 1115 z "},"ù":{"ha":1069,"x_min":0,"x_max":852,"o":"m 609 939 l 544 939 l 305 1115 l 368 1115 l 609 939 m 814 852 l 852 852 l 852 441 l 850 410 q 745 144 844 256 q 673 79 719 113 q 437 0 567 3 l 435 0 q 427 0 435 0 q 425 0 427 0 q 178 79 288 0 q 106 146 144 103 q 0 410 7 260 l 0 441 l 0 852 l 38 852 l 38 642 l 38 604 l 38 456 l 38 426 q 64 285 38 355 l 64 282 q 206 106 107 174 q 426 38 305 38 q 645 106 547 39 q 787 282 743 174 l 787 283 l 788 285 q 814 426 814 355 l 814 456 l 814 604 l 814 642 l 814 852 z "}}}
